<svg width="964" height="250" viewBox="0 0 964 250" fill="none" xmlns="http://www.w3.org/2000/svg">
<path fill-rule="evenodd" clip-rule="evenodd" d="M87.749 134.831H52.46L71.208 73.847L87.749 134.831ZM35.918 196.477L46.946 159.313H92.159L103.187 196.477H140.683L100.982 55.431C98.777 46.168 94.366 43.19 84.441 43.19H29.301V55.872H33.713C40.329 55.872 43.637 57.967 43.637 63.041C43.637 66.238 43.637 68.334 40.329 75.942L0.628998 196.477" fill="#929292"/>
<path d="M188.103 196.477V54.439C188.103 47.049 183.691 43.19 175.973 43.19H141.786V55.872H143.991C150.607 55.872 153.917 58.628 153.917 64.584V196.477" fill="#929292"/>
<path d="M249.859 196.477V54.439C249.859 47.049 245.447 43.19 237.729 43.19H203.542V55.872H205.747C212.365 55.872 215.673 58.628 215.673 64.584V196.477" fill="#929292"/>
<path fill-rule="evenodd" clip-rule="evenodd" d="M312.718 56.755C312.718 46.608 304.997 40.653 292.867 40.653C279.634 40.653 273.018 46.608 273.018 56.755C273.018 67.121 279.634 73.186 292.867 73.186C304.997 73.186 312.718 67.121 312.718 56.755ZM311.615 196.478V93.036C311.615 85.867 307.204 81.676 300.587 81.676H266.4V94.139H268.606C275.223 94.139 277.428 96.895 277.428 103.181V196.478" fill="#929292"/>
<path fill-rule="evenodd" clip-rule="evenodd" d="M393.221 140.786V163.725C386.604 170.341 378.885 174.091 372.268 174.091C365.651 174.091 362.343 170.892 362.343 162.291C362.343 152.806 364.548 149.168 372.268 146.19C377.781 143.875 383.296 142.44 393.221 140.786ZM344.699 113.328L348.007 112.004C356.829 108.475 362.343 107.151 368.96 105.938C372.268 105.497 376.679 105.056 378.885 105.056C389.912 105.056 393.221 108.696 393.221 118.841V121.708C377.781 124.245 373.371 125.127 364.548 127.002C360.137 128.104 355.727 129.539 351.315 131.412C336.979 137.147 330.361 148.175 330.361 165.488C330.361 187.214 339.184 197.58 359.035 197.58C366.755 197.58 374.473 195.816 379.988 192.287C385.501 189.751 387.707 188.427 394.324 182.361V185.89C394.324 193.059 397.632 196.477 404.249 196.477H437.332V184.677H436.229C429.613 184.677 426.305 181.699 426.305 175.745V119.392C426.305 90.058 416.38 80.133 387.707 80.133C377.781 80.133 368.96 81.236 360.137 83.332C351.315 85.427 346.904 86.97 336.979 92.153" fill="#929292"/>
<path fill-rule="evenodd" clip-rule="evenodd" d="M489.164 196.478V118.621C496.882 111.453 502.397 108.696 510.117 108.696C517.836 108.696 520.041 112.004 520.041 123.694V196.478H554.227V118.179C554.227 102.079 552.022 95.131 547.612 89.066C542.097 83.111 535.481 80.354 525.556 80.354C512.322 80.354 502.397 85.206 486.959 98.549V92.374C486.959 85.206 483.649 81.676 477.033 81.676H443.949V94.139H445.052C451.669 94.139 454.977 96.895 454.977 103.181V196.478" fill="#929292"/>
<path d="M660.105 174.515H609.377L657.899 105.26V81.66H585.115C576.292 81.66 572.984 85.189 572.984 93.681V114.524H585.115V112.208C585.115 105.922 588.423 103.385 595.04 103.385H621.507L571.882 172.64V196.461H660.105" fill="#929292"/>
<path fill-rule="evenodd" clip-rule="evenodd" d="M855.3 190.175V60.266C855.3 49.79 850.89 46.371 840.962 46.371H811.186V60.708H814.495C820.009 60.708 822.214 62.803 822.214 69.199V190.175H855.3ZM872.94 190.175H904.92V92.137C904.92 82.212 900.51 78.242 890.59 78.242H872.94V190.175ZM804.57 190.175V78.242H786.925C777 78.242 772.588 82.212 772.588 92.137V190.175H804.57ZM942.42 124.89C942.42 185.654 898.31 229.986 838.756 229.986C779.205 229.986 735.093 185.654 735.093 124.89C735.093 64.127 779.205 19.794 838.756 19.794C898.31 19.794 942.42 64.127 942.42 124.89ZM963.37 124.89C963.37 53.761 910.44 0.38501 838.756 0.38501C768.177 0.38501 714.142 53.761 714.142 124.89C714.142 196.241 768.177 249.616 838.756 249.616C910.44 249.616 963.37 196.241 963.37 124.89Z" fill="#929292"/>
</svg>
