<svg width="809" height="305" viewBox="0 0 809 305" fill="none" xmlns="http://www.w3.org/2000/svg">
<path d="M659.415 61.605C642.341 61.605 629.638 47.747 629.638 30.958C629.638 13.742 642.341 0.309998 659.415 0.309998C676.493 0.309998 689.191 13.742 689.191 30.958C689.191 47.747 676.493 61.605 659.415 61.605ZM799.183 298.811H804.738C807.122 298.811 808.71 297.132 808.71 294.611V261.032C808.71 258.506 807.521 256.827 805.53 255.99C783.299 246.753 776.151 232.479 776.151 197.632V11.642C776.151 9.126 774.563 7.442 772.179 7.442H729.301C726.917 7.442 725.324 9.126 725.324 11.642V200.995C725.324 259.348 754.314 298.811 799.183 298.811ZM287.766 297.553H330.648C333.028 297.553 334.616 295.874 334.616 293.353V184.616C334.616 164.884 331.44 147.669 325.88 133.816C344.148 126.258 361.221 122.063 371.939 122.063C398.544 122.063 411.252 139.274 411.252 175.8V293.353C411.252 295.874 412.835 297.553 415.22 297.553H458.102C460.487 297.553 462.074 295.874 462.074 293.353V174.958C462.074 158.168 459.292 143.469 454.926 130.879C471.602 125 488.282 122.063 499.402 122.063C526.003 122.063 538.706 139.274 538.706 175.8V293.353C538.706 295.874 540.294 297.553 542.678 297.553H585.561C587.945 297.553 589.528 295.874 589.528 293.353V174.958C589.528 117.021 564.515 77.979 510.119 78.821C484.708 79.237 460.486 85.537 434.677 98.547C420.78 85.537 402.118 78.821 379.091 78.821C354.074 78.821 330.648 88.474 302.455 101.489C292.529 93.511 274.261 86.795 261.558 86.795H255.207C252.822 86.795 251.235 88.474 251.235 90.995V125.421C251.235 127.516 252.424 129.616 254.41 130.458C276.646 139.695 283.794 153.969 283.794 188.816V293.353C283.794 295.874 285.381 297.553 287.766 297.553ZM105.513 304.69C138.072 304.69 162.293 289.153 180.158 269.422C194.852 286.216 213.116 297.553 240.911 297.553H246.073C248.457 297.553 250.045 295.874 250.045 293.353V261.032C250.045 258.506 248.85 256.827 246.869 255.99C224.629 246.753 217.481 232.479 217.481 197.632V90.153C217.481 87.632 215.893 85.958 213.514 85.958H171.024C168.645 85.958 167.057 87.632 167.057 90.153V104.847C155.145 92.248 133.702 78.821 105.115 78.821C49.922 78.821 0.289978 127.942 0.289978 192.59C0.289978 261.869 49.529 304.69 105.513 304.69ZM637.971 297.553H680.858C683.238 297.553 684.826 295.874 684.826 293.353V90.153C684.826 87.632 683.238 85.958 680.858 85.958H637.971C635.591 85.958 634.004 87.632 634.004 90.153V293.353C634.004 295.874 635.591 297.553 637.971 297.553ZM110.277 258.085C74.542 258.085 47.941 227.853 47.941 191.753C47.941 155.227 74.542 125.421 110.277 125.421C146.016 125.421 172.219 155.227 172.219 191.753C172.219 227.853 146.016 258.085 110.277 258.085Z" fill="#929292"/>
</svg>
