<svg width="605" height="152" viewBox="0 0 605 152" fill="none" xmlns="http://www.w3.org/2000/svg">
<path fill-rule="evenodd" clip-rule="evenodd" d="M205.258 57.811C214.805 57.811 222.765 65.772 222.765 75.844C222.765 85.93 214.805 93.884 204.726 93.884H180.857C170.785 93.884 162.824 85.93 162.824 75.844C162.824 65.772 170.785 57.811 180.857 57.811H205.258Z" fill="#929292"/>
<path fill-rule="evenodd" clip-rule="evenodd" d="M444.992 133.658C444.992 143.744 437.038 151.691 426.959 151.691C417.413 151.691 408.926 143.744 408.926 133.658V18.039C408.926 7.96 417.413 0 426.959 0C437.038 0 444.992 7.96 444.992 17.507V133.658ZM565.922 10.083C571.224 12.728 574.935 18.563 574.935 25.464C574.935 35.537 566.981 43.497 557.435 43.497C553.724 43.497 550.54 42.432 547.889 40.846C542.053 37.656 535.159 35.537 528.264 35.537C505.987 35.537 487.954 53.576 487.954 75.846C487.954 98.117 505.987 116.162 528.264 116.162C544.178 116.162 557.435 106.616 564.33 93.886H528.264C518.185 93.886 510.231 85.393 510.231 75.846C510.231 65.767 518.185 57.807 528.264 57.807H586.08C596.158 57.807 604.106 65.767 604.106 75.846C604.106 117.748 570.159 151.689 528.264 151.689C486.362 151.689 452.421 117.748 452.421 75.846C452.421 33.951 486.362 0.0039978 528.264 0.0039978C542.053 0.0039978 554.784 3.71399 565.922 10.083ZM115.619 11.147C120.922 14.319 124.106 20.154 124.106 26.529C124.106 36.595 116.152 44.555 106.606 44.555C102.895 44.555 99.7113 43.496 97.0593 41.378C90.6913 37.654 83.2703 35.542 75.8423 35.542C53.5663 35.542 35.5332 53.575 35.5332 75.845C35.5332 98.122 53.5663 116.161 75.8423 116.161C93.8753 116.161 109.257 103.957 114.027 87.516L136.836 13.792C138.961 6.37101 145.856 1.595 153.81 1.595H222.231C232.31 1.595 240.264 9.549 240.264 19.095C240.264 29.174 232.31 37.134 222.231 37.134H172.369C169.191 37.134 166.534 39.253 165.481 41.91L148.507 97.595C138.961 128.891 109.783 151.694 75.8423 151.694C33.9412 151.694 0 117.753 0 75.845C0 33.95 33.9412 0.00300598 75.8423 0.00300598C90.1653 0.00300598 103.948 4.252 115.619 11.147ZM219.579 109.264L249.277 12.731C251.401 5.31 258.296 0.00100708 266.25 0.00100708H269.967C277.921 0.00100708 284.816 5.30999 286.941 12.204L307.625 79.027L327.244 12.731C329.369 5.31 336.264 0.00100708 344.75 0.00100708H348.467C356.415 0.00100708 363.31 5.30999 365.435 12.204L400.974 128.356C401.501 129.942 401.501 132.067 401.501 133.659C401.501 143.744 393.54 151.692 383.994 151.692C376.04 151.692 369.145 146.396 367.027 138.968L346.342 72.672L326.185 139.495C324.066 146.396 317.171 151.692 309.217 151.692H305.5C297.546 151.692 290.652 146.396 288.527 138.968L268.375 72.672L248.75 137.37C246.099 144.804 239.73 150.106 231.25 150.106H162.829C153.276 150.106 145.322 142.146 145.322 132.067C145.322 122.521 153.276 114.567 162.829 114.567H212.678C215.868 114.567 218.52 112.442 219.579 109.264Z" fill="#929292"/>
</svg>
