<svg width="676" height="105" viewBox="0 0 676 105" fill="none" xmlns="http://www.w3.org/2000/svg">
<path fill-rule="evenodd" clip-rule="evenodd" d="M166.705 55.2748V74.776C165.165 74.9467 163.541 75.2038 162 75.2038C151.053 75.2038 145.066 72.1244 145.066 55.4443C145.066 38.6812 153.278 35.6893 167.389 35.6893C173.292 35.6893 178.594 36.5426 181.587 37.0578V26.6229C175.258 25.168 168.672 24.5697 162.171 24.5697C140.703 24.5697 127.874 34.6621 127.874 56.558C127.874 75.6315 140.96 86.0652 159.777 86.0652C167.56 86.0652 175.515 85.0402 183.127 83.4158V55.2748H166.705Z" fill="#929292"/>
<path fill-rule="evenodd" clip-rule="evenodd" d="M239.294 62.7153C239.294 45.2684 228.945 38.9379 213.977 38.9379C199.009 38.9379 188.231 45.2684 188.231 62.7153C188.231 79.4796 200.207 86.5802 213.977 86.5802C227.747 86.5802 239.294 79.4796 239.294 62.7153ZM223.214 62.7153C223.214 70.073 222.872 77.2567 213.977 77.2567C205.081 77.2567 204.312 70.073 204.312 62.7153C204.312 55.4451 205.081 48.2603 213.977 48.2603C222.872 48.2603 223.214 55.4451 223.214 62.7153Z" fill="#929292"/>
<path fill-rule="evenodd" clip-rule="evenodd" d="M261.922 20.3789H245.928V85.212H261.922V20.3789Z" fill="#929292"/>
<path fill-rule="evenodd" clip-rule="evenodd" d="M319.206 20.2919H303.212V40.2219C299.876 39.7931 296.37 39.5382 292.863 39.5382C288.416 39.5382 284.224 40.1366 281.144 41.4187C272.592 45.1828 268.571 54.2481 268.571 63.2292C268.571 72.2955 272.763 80.6793 281.315 84.356C286.105 86.4935 292.092 86.4082 297.224 86.4082C305.692 86.4082 317.839 85.125 319.206 85.0397V20.2919ZM303.296 76.3157C300.817 76.657 298.251 76.8276 295.77 76.7434C287.732 76.5728 285.506 69.3879 285.506 63.4009C285.506 55.2742 288.329 49.2019 296.712 49.2019C299.79 49.2019 303.296 49.716 303.296 49.716V76.3157Z" fill="#929292"/>
<path fill-rule="evenodd" clip-rule="evenodd" d="M374.689 67.1636C375.289 48.3471 369.386 39.0248 350.74 39.0248C334.573 39.0248 325.85 48.0047 325.85 62.4586C325.85 80.4207 337.825 86.4088 353.819 86.4088C362.97 86.4088 370.669 84.7822 370.669 84.7822V75.718C370.669 75.718 363.399 77.0854 356.386 77.0854C349.713 77.0854 342.102 74.9468 342.102 67.1636H374.689ZM359.208 58.6967H342.015C342.272 52.9656 343.385 47.9183 350.653 47.9183C357.925 47.9183 359.035 52.9656 359.208 58.6967Z" fill="#929292"/>
<path fill-rule="evenodd" clip-rule="evenodd" d="M427.189 85.2111V53.6495C427.189 43.2999 419.577 39.5379 413.333 39.5379C405.464 39.5379 400.589 42.1874 394.773 44.9266V40.307H380.317V85.2111H396.312V52.9658C397.338 52.4538 401.53 50.9989 404.866 50.9989C410.851 50.9989 411.195 55.4446 411.195 57.7549V85.2111H427.189Z" fill="#929292"/>
<path d="M99.2357 32.2309C101.846 32.2309 103.961 34.3476 103.961 36.9566V68.4209C103.961 71.031 101.846 73.1455 99.2357 73.1455L77.1616 73.1433C74.5919 73.1433 72.5026 75.1944 72.438 77.7498V99.9443C72.438 102.553 70.3224 104.669 67.7123 104.669H36.248C33.639 104.669 31.5234 102.553 31.5234 99.9443V77.8701C31.5234 75.26 29.4077 73.1433 26.7977 73.1433L4.72572 73.1455C2.11563 73.1455 0 71.031 0 68.4209V36.9566C0 34.3476 2.11563 32.2309 4.72572 32.2309H26.7977C29.4077 32.2309 31.5234 30.1152 31.5234 27.5062V5.4332C31.5234 2.82311 33.639 0.708572 36.248 0.708572H67.7123C70.3224 0.708572 72.438 2.82311 72.438 5.4332V27.6244C72.5026 30.1798 74.5919 32.2309 77.1616 32.2309H99.2357Z" fill="#929292"/>
<path d="M37.5064 4.86716C35.1064 4.86716 33.1603 6.8121 33.1603 9.21325V29.5196C33.1603 31.9218 31.2131 33.869 28.812 33.869H8.50565C6.11217 33.869 4.16936 35.8042 4.15842 38.1955V67.1799C4.16936 69.5734 6.11217 71.5096 8.50565 71.5096L28.812 71.5085C31.2131 71.5085 33.1603 73.4546 33.1603 75.8557V96.1632C33.1603 98.5654 35.1064 100.511 37.5064 100.511H66.4537C68.8548 100.511 70.8009 98.5654 70.8009 96.1632V75.7463C70.8589 73.3955 72.783 71.5085 75.1481 71.5085L95.4555 71.5096C97.8556 71.5096 99.8028 69.5624 99.8028 67.1624V38.2152C99.8028 35.814 97.8556 33.869 95.4555 33.869H75.1481C72.783 33.869 70.8589 31.9809 70.8009 29.6301V9.21325C70.8009 6.8121 68.8548 4.86716 66.4537 4.86716H37.5064Z" fill="url(#paint0_linear_105_404)"/>
<path fill-rule="evenodd" clip-rule="evenodd" d="M33.1601 78.3517C33.3647 77.2162 33.9007 76.4067 34.5319 76.4067C35.3392 76.4067 35.9933 77.7326 35.9933 79.368V96.98C35.9933 98.2468 35.6017 99.3254 35.0515 99.7509C33.9094 98.9666 33.1603 97.6531 33.1603 96.1632L33.1601 78.3517Z" fill="#929292"/>
<path d="M73.5591 35.3631C73.5591 34.5569 74.8849 33.9027 76.5214 33.9027H94.1335C95.7689 33.9027 97.0947 34.5569 97.0947 35.3631C97.0947 36.1704 95.7689 36.8246 94.1335 36.8246H76.5214C74.8849 36.8246 73.5591 36.1704 73.5591 35.3631Z" fill="#929292"/>
<path d="M66.65 4.87129C66.9989 5.1382 67.2232 5.55608 67.2232 6.02646C67.2232 6.83377 66.5614 7.48794 65.7431 7.48794H36.4524C35.8322 7.59514 35.2294 7.95285 35.2294 9.47011V29.2164C35.2294 29.2164 35.7928 35.9527 28.4931 35.9527H7.33459C7.33459 35.9527 5.46618 35.8619 4.92579 38.1165C4.38539 40.3689 4.15895 40.9103 4.15895 38.9315V38.2149C4.15895 35.8138 6.10451 33.869 8.50565 33.869H28.812C31.2131 33.869 33.1603 31.9218 33.1603 29.5196L33.1598 9.21413C33.1598 6.81189 35.1064 4.86716 37.5064 4.86716H66.4537C66.5193 4.86716 66.5844 4.868 66.65 4.87129Z" fill="#929292"/>
<path fill-rule="evenodd" clip-rule="evenodd" d="M500.842 83.5873V72.8953C500.842 72.8953 493.487 74.091 487.586 74.091C475.27 74.091 468.342 69.4736 468.342 55.1028C468.342 40.7342 475.27 36.1157 487.586 36.1157C493.487 36.1157 500.245 37.3135 500.245 37.3135V26.1939C494.686 24.8254 488.442 24.5694 482.796 24.5694C463.039 24.5694 451.064 36.3728 451.064 55.618C451.064 74.6062 464.578 85.9808 483.31 85.9808C489.212 85.9808 495.199 85.2107 500.842 83.5873Z" fill="#929292"/>
<path fill-rule="evenodd" clip-rule="evenodd" d="M536.307 52.7088V39.8794C531.861 39.8794 526.727 39.7087 518.944 44.9267V40.3071H504.49V85.2112H520.484V54.9316C524.59 52.024 533.058 52.7088 536.307 52.7088Z" fill="#929292"/>
<path fill-rule="evenodd" clip-rule="evenodd" d="M588.637 62.7153C588.637 45.2684 578.288 38.9379 563.319 38.9379C548.352 38.9379 537.574 45.2684 537.574 62.7153C537.574 79.4796 549.55 86.5802 563.319 86.5802C577.089 86.5802 588.637 79.4796 588.637 62.7153ZM572.558 62.7153C572.558 70.073 572.214 77.2567 563.319 77.2567C554.424 77.2567 553.655 70.073 553.655 62.7153C553.655 55.4451 554.424 48.2603 563.319 48.2603C572.214 48.2603 572.558 55.4451 572.558 62.7153Z" fill="#929292"/>
<path fill-rule="evenodd" clip-rule="evenodd" d="M632.563 69.9871C632.563 60.4076 624.609 58.0973 618.537 57.0712C612.634 56.0451 607.159 56.3864 607.159 52.6244C607.159 48.2608 614.344 48.4325 617.338 48.4325C620.503 48.4325 629.911 49.7168 629.911 49.7168V41.076C629.911 41.076 622.128 39.5379 614.685 39.5379C602.114 39.5379 592.192 43.4716 592.192 54.3342C592.192 64.256 600.916 67.249 608.358 68.5322C613.489 69.4729 617.851 69.1316 617.851 72.6376C617.851 76.3154 613.489 77.2572 608.699 77.2572C600.831 77.2572 592.619 75.3746 592.619 75.3746V84.698C592.619 84.698 603.14 86.4089 610.325 86.4089C623.154 86.4089 632.563 81.4469 632.563 69.9871Z" fill="#929292"/>
<path fill-rule="evenodd" clip-rule="evenodd" d="M675.81 69.9871C675.81 60.4076 667.855 58.0973 661.783 57.0712C655.881 56.0451 650.405 56.3864 650.405 52.6244C650.405 48.2608 657.591 48.4325 660.585 48.4325C663.75 48.4325 673.157 49.7168 673.157 49.7168V41.076C673.157 41.076 665.373 39.5379 657.932 39.5379C645.36 39.5379 635.438 43.4716 635.438 54.3342C635.438 64.256 644.162 67.249 651.604 68.5322C656.735 69.4729 661.097 69.1316 661.097 72.6376C661.097 76.3154 656.735 77.2572 651.946 77.2572C644.077 77.2572 635.865 75.3746 635.865 75.3746V84.698C635.865 84.698 646.386 86.4089 653.571 86.4089C666.401 86.4089 675.81 81.4469 675.81 69.9871Z" fill="#929292"/>
<path d="M99.2357 32.2309C101.846 32.2309 103.961 34.3476 103.961 36.9566V68.4209C103.961 71.031 101.846 73.1455 99.2357 73.1455L77.1616 73.1433C74.5919 73.1433 72.5026 75.1944 72.438 77.7498V99.9443C72.438 102.553 70.3224 104.669 67.7123 104.669H36.248C33.639 104.669 31.5234 102.553 31.5234 99.9443V77.8701C31.5234 75.26 29.4077 73.1433 26.7977 73.1433L4.72572 73.1455C2.11563 73.1455 0 71.031 0 68.4209V36.9566C0 34.3476 2.11563 32.2309 4.72572 32.2309H26.7977C29.4077 32.2309 31.5234 30.1152 31.5234 27.5062V5.4332C31.5234 2.82311 33.639 0.708572 36.248 0.708572H67.7123C70.3224 0.708572 72.438 2.82311 72.438 5.4332V27.6244C72.5026 30.1798 74.5919 32.2309 77.1616 32.2309H99.2357Z" fill="#929292"/>
<path d="M37.5064 4.86716C35.1064 4.86716 33.1603 6.8121 33.1603 9.21325V29.5196C33.1603 31.9218 31.2131 33.869 28.812 33.869H8.50565C6.11217 33.869 4.16936 35.8042 4.15842 38.1955V67.1799C4.16936 69.5734 6.11217 71.5096 8.50565 71.5096L28.812 71.5085C31.2131 71.5085 33.1603 73.4546 33.1603 75.8557V96.1632C33.1603 98.5654 35.1064 100.511 37.5064 100.511H66.4537C68.8548 100.511 70.8009 98.5654 70.8009 96.1632V75.7463C70.8589 73.3955 72.783 71.5085 75.1481 71.5085L95.4555 71.5096C97.8556 71.5096 99.8028 69.5624 99.8028 67.1624V38.2152C99.8028 35.814 97.8556 33.869 95.4555 33.869H75.1481C72.783 33.869 70.8589 31.9809 70.8009 29.6301V9.21325C70.8009 6.8121 68.8548 4.86716 66.4537 4.86716H37.5064Z" fill="url(#paint1_linear_105_404)"/>
<path fill-rule="evenodd" clip-rule="evenodd" d="M33.1601 78.3517C33.3647 77.2162 33.9007 76.4067 34.5319 76.4067C35.3392 76.4067 35.9933 77.7326 35.9933 79.368V96.98C35.9933 98.2468 35.6017 99.3254 35.0515 99.7509C33.9094 98.9666 33.1603 97.6531 33.1603 96.1632L33.1601 78.3517Z" fill="#929292"/>
<path d="M73.5591 35.3631C73.5591 34.5569 74.8849 33.9027 76.5214 33.9027H94.1335C95.7689 33.9027 97.0947 34.5569 97.0947 35.3631C97.0947 36.1704 95.7689 36.8246 94.1335 36.8246H76.5214C74.8849 36.8246 73.5591 36.1704 73.5591 35.3631Z" fill="#929292"/>
<path d="M66.65 4.87129C66.9989 5.1382 67.2232 5.55608 67.2232 6.02646C67.2232 6.83377 66.5614 7.48794 65.7431 7.48794H36.4524C35.8322 7.59514 35.2294 7.95285 35.2294 9.47011V29.2164C35.2294 29.2164 35.7928 35.9527 28.4931 35.9527H7.33459C7.33459 35.9527 5.46618 35.8619 4.92579 38.1165C4.38539 40.3689 4.15895 40.9103 4.15895 38.9315V38.2149C4.15895 35.8138 6.10451 33.869 8.50565 33.869H28.812C31.2131 33.869 33.1603 31.9218 33.1603 29.5196L33.1598 9.21413C33.1598 6.81189 35.1064 4.86716 37.5064 4.86716H66.4537C66.5193 4.86716 66.5844 4.868 66.65 4.87129Z" fill="#929292"/>
<path d="M99.2357 32.2309C101.846 32.2309 103.961 34.3476 103.961 36.9566V68.4209C103.961 71.031 101.846 73.1455 99.2357 73.1455L77.1616 73.1433C74.5919 73.1433 72.5026 75.1944 72.438 77.7498V99.9443C72.438 102.553 70.3224 104.669 67.7123 104.669H36.248C33.639 104.669 31.5234 102.553 31.5234 99.9443V77.8701C31.5234 75.26 29.4077 73.1433 26.7977 73.1433L4.72572 73.1455C2.11563 73.1455 0 71.031 0 68.4209V36.9566C0 34.3476 2.11563 32.2309 4.72572 32.2309H26.7977C29.4077 32.2309 31.5234 30.1152 31.5234 27.5062V5.4332C31.5234 2.82311 33.639 0.708572 36.248 0.708572H67.7123C70.3224 0.708572 72.438 2.82311 72.438 5.4332V27.6244C72.5026 30.1798 74.5919 32.2309 77.1616 32.2309H99.2357Z" fill="#929292"/>
<path d="M37.5064 4.86716C35.1064 4.86716 33.1603 6.8121 33.1603 9.21325V29.5196C33.1603 31.9218 31.2131 33.869 28.812 33.869H8.50565C6.11217 33.869 4.16936 35.8042 4.15842 38.1955V67.1799C4.16936 69.5734 6.11217 71.5096 8.50565 71.5096L28.812 71.5085C31.2131 71.5085 33.1603 73.4546 33.1603 75.8557V96.1632C33.1603 98.5654 35.1064 100.511 37.5064 100.511H66.4537C68.8548 100.511 70.8009 98.5654 70.8009 96.1632V75.7463C70.8589 73.3955 72.783 71.5085 75.1481 71.5085L95.4555 71.5096C97.8556 71.5096 99.8028 69.5624 99.8028 67.1624V38.2152C99.8028 35.814 97.8556 33.869 95.4555 33.869H75.1481C72.783 33.869 70.8589 31.9809 70.8009 29.6301V9.21325C70.8009 6.8121 68.8548 4.86716 66.4537 4.86716H37.5064Z" fill="url(#paint2_linear_105_404)"/>
<path fill-rule="evenodd" clip-rule="evenodd" d="M33.1601 78.3517C33.3647 77.2162 33.9007 76.4067 34.5319 76.4067C35.3392 76.4067 35.9933 77.7326 35.9933 79.368V96.98C35.9933 98.2468 35.6017 99.3254 35.0515 99.7509C33.9094 98.9666 33.1603 97.6531 33.1603 96.1632L33.1601 78.3517Z" fill="#929292"/>
<path d="M73.5591 35.3631C73.5591 34.5569 74.8849 33.9027 76.5214 33.9027H94.1335C95.7689 33.9027 97.0947 34.5569 97.0947 35.3631C97.0947 36.1704 95.7689 36.8246 94.1335 36.8246H76.5214C74.8849 36.8246 73.5591 36.1704 73.5591 35.3631Z" fill="#929292"/>
<path d="M66.65 4.87129C66.9989 5.1382 67.2232 5.55608 67.2232 6.02646C67.2232 6.83377 66.5614 7.48794 65.7431 7.48794H36.4524C35.8322 7.59514 35.2294 7.95285 35.2294 9.47011V29.2164C35.2294 29.2164 35.7928 35.9527 28.4931 35.9527H7.33459C7.33459 35.9527 5.46618 35.8619 4.92579 38.1165C4.38539 40.3689 4.15895 40.9103 4.15895 38.9315V38.2149C4.15895 35.8138 6.10451 33.869 8.50565 33.869H28.812C31.2131 33.869 33.1603 31.9218 33.1603 29.5196L33.1598 9.21413C33.1598 6.81189 35.1064 4.86716 37.5064 4.86716H66.4537C66.5193 4.86716 66.5844 4.868 66.65 4.87129Z" fill="#929292"/>
<path d="M99.2357 32.2309C101.846 32.2309 103.961 34.3476 103.961 36.9566V68.4209C103.961 71.031 101.846 73.1455 99.2357 73.1455L77.1616 73.1433C74.5919 73.1433 72.5026 75.1944 72.438 77.7498V99.9443C72.438 102.553 70.3224 104.669 67.7123 104.669H36.248C33.639 104.669 31.5234 102.553 31.5234 99.9443V77.8701C31.5234 75.26 29.4077 73.1433 26.7977 73.1433L4.72572 73.1455C2.11563 73.1455 0 71.031 0 68.4209V36.9566C0 34.3476 2.11563 32.2309 4.72572 32.2309H26.7977C29.4077 32.2309 31.5234 30.1152 31.5234 27.5062V5.4332C31.5234 2.82311 33.639 0.708572 36.248 0.708572H67.7123C70.3224 0.708572 72.438 2.82311 72.438 5.4332V27.6244C72.5026 30.1798 74.5919 32.2309 77.1616 32.2309H99.2357Z" fill="#929292"/>
<path d="M37.5064 4.86716C35.1064 4.86716 33.1603 6.8121 33.1603 9.21325V29.5196C33.1603 31.9218 31.2131 33.869 28.812 33.869H8.50565C6.11217 33.869 4.16936 35.8042 4.15842 38.1955V67.1799C4.16936 69.5734 6.11217 71.5096 8.50565 71.5096L28.812 71.5085C31.2131 71.5085 33.1603 73.4546 33.1603 75.8557V96.1632C33.1603 98.5654 35.1064 100.511 37.5064 100.511H66.4537C68.8548 100.511 70.8009 98.5654 70.8009 96.1632V75.7463C70.8589 73.3955 72.783 71.5085 75.1481 71.5085L95.4555 71.5096C97.8556 71.5096 99.8028 69.5624 99.8028 67.1624V38.2152C99.8028 35.814 97.8556 33.869 95.4555 33.869H75.1481C72.783 33.869 70.8589 31.9809 70.8009 29.6301V9.21325C70.8009 6.8121 68.8548 4.86716 66.4537 4.86716H37.5064Z" fill="url(#paint3_linear_105_404)"/>
<path fill-rule="evenodd" clip-rule="evenodd" d="M33.1601 78.3517C33.3647 77.2162 33.9007 76.4067 34.5319 76.4067C35.3392 76.4067 35.9933 77.7326 35.9933 79.368V96.98C35.9933 98.2468 35.6017 99.3254 35.0515 99.7509C33.9094 98.9666 33.1603 97.6531 33.1603 96.1632L33.1601 78.3517Z" fill="#929292"/>
<path d="M73.5591 35.3631C73.5591 34.5569 74.8849 33.9027 76.5214 33.9027H94.1335C95.7689 33.9027 97.0947 34.5569 97.0947 35.3631C97.0947 36.1704 95.7689 36.8246 94.1335 36.8246H76.5214C74.8849 36.8246 73.5591 36.1704 73.5591 35.3631Z" fill="#929292"/>
<path d="M66.65 4.87129C66.9989 5.1382 67.2232 5.55608 67.2232 6.02646C67.2232 6.83377 66.5614 7.48794 65.7431 7.48794H36.4524C35.8322 7.59514 35.2294 7.95285 35.2294 9.47011V29.2164C35.2294 29.2164 35.7928 35.9527 28.4931 35.9527H7.33459C7.33459 35.9527 5.46618 35.8619 4.92579 38.1165C4.38539 40.3689 4.15895 40.9103 4.15895 38.9315V38.2149C4.15895 35.8138 6.10451 33.869 8.50565 33.869H28.812C31.2131 33.869 33.1603 31.9218 33.1603 29.5196L33.1598 9.21413C33.1598 6.81189 35.1064 4.86716 37.5064 4.86716H66.4537C66.5193 4.86716 66.5844 4.868 66.65 4.87129Z" fill="#929292"/>
<defs>
<linearGradient id="paint0_linear_105_404" x1="876.853" y1="-30.2172" x2="827.018" y2="293.741" gradientUnits="userSpaceOnUse">
<stop stop-color="#929292"/>
<stop offset="0.16" stop-color="#929292"/>
<stop offset="1" stop-color="#929292"/>
</linearGradient>
<linearGradient id="paint1_linear_105_404" x1="876.853" y1="-30.2172" x2="827.018" y2="293.741" gradientUnits="userSpaceOnUse">
<stop stop-color="#929292"/>
<stop offset="0.16" stop-color="#929292"/>
<stop offset="1" stop-color="#929292"/>
</linearGradient>
<linearGradient id="paint2_linear_105_404" x1="876.853" y1="-30.2172" x2="827.018" y2="293.741" gradientUnits="userSpaceOnUse">
<stop stop-color="#929292"/>
<stop offset="0.16" stop-color="#929292"/>
<stop offset="1" stop-color="#929292"/>
</linearGradient>
<linearGradient id="paint3_linear_105_404" x1="876.853" y1="-30.2172" x2="827.018" y2="293.741" gradientUnits="userSpaceOnUse">
<stop stop-color="#929292"/>
<stop offset="0.16" stop-color="#929292"/>
<stop offset="1" stop-color="#929292"/>
</linearGradient>
</defs>
</svg>
