<svg width="708" height="181" viewBox="0 0 708 181" fill="none" xmlns="http://www.w3.org/2000/svg">
<path d="M632.048 27.806C631.694 27.806 631.341 27.806 630.87 27.806C630.517 27.688 630.163 27.806 629.81 27.688C629.456 27.688 629.103 27.688 628.632 27.688C628.279 27.571 627.925 27.688 627.572 27.571C627.218 27.571 626.865 27.571 626.394 27.453C626.04 27.335 625.687 27.453 625.334 27.335C624.98 27.335 624.745 27.335 624.391 27.335C624.038 27.217 623.685 27.335 623.331 27.217C622.978 27.217 622.625 27.217 622.153 27.099C621.8 26.982 621.447 27.099 621.093 26.982C620.74 26.982 620.504 26.982 620.151 26.982C619.798 26.864 619.444 26.982 619.091 26.864C618.737 26.864 618.502 26.864 618.148 26.864C617.795 26.628 617.442 26.864 617.088 26.746C616.735 26.746 616.499 26.746 616.146 26.746C615.793 26.628 615.439 26.746 615.086 26.628C614.733 26.628 614.497 26.628 614.144 26.628C613.79 26.393 613.437 26.628 613.083 26.51C612.73 26.51 612.377 26.51 611.906 26.393C611.552 26.275 611.199 26.393 610.845 26.275C610.492 26.275 610.256 26.275 609.903 26.275C609.55 26.039 609.196 26.275 608.843 26.157C608.49 26.157 608.136 26.157 607.665 26.039C607.312 25.921 606.958 26.039 606.605 25.921C606.252 25.921 606.016 25.921 605.663 25.921C605.309 25.686 604.956 25.921 604.602 25.804C604.249 25.804 603.778 25.804 603.425 25.804C603.071 25.568 602.6 25.804 602.129 25.686C601.775 25.686 601.304 25.686 600.951 25.686C600.598 25.45 600.126 25.686 599.655 25.568C599.184 25.568 598.713 25.568 598.359 25.568C597.888 25.333 597.417 25.568 596.828 25.45C596.357 25.45 595.886 25.45 595.532 25.45C595.061 25.215 594.472 25.45 594.001 25.333C593.53 25.333 593.059 25.333 592.706 25.333C592.117 25.097 591.528 25.333 591.056 25.215C590.467 25.215 589.879 25.215 589.29 25.215C588.701 24.979 587.994 25.215 587.405 25.097C586.816 25.097 586.109 25.097 585.52 25.097C584.813 24.861 583.989 25.097 583.164 24.979C582.34 24.979 581.515 24.979 580.573 24.979C579.513 24.744 578.453 24.979 577.51 24.861C575.626 24.861 573.741 24.744 571.974 24.861C570.207 24.744 568.323 24.744 566.556 24.861C564.789 24.744 563.022 24.861 561.137 24.861C560.195 25.097 559.253 24.744 558.193 24.979C557.486 24.979 556.779 24.979 556.072 24.979C555.483 25.097 554.777 24.861 554.188 25.097C553.717 25.097 553.128 25.097 552.656 25.097C552.185 25.215 551.714 25.097 551.243 25.215C550.89 25.215 550.418 25.215 550.065 25.215C549.594 25.333 549.24 25.215 548.769 25.333H547.591C547.238 25.45 546.885 25.333 546.531 25.45C544.411 25.686 542.291 25.921 540.288 26.157C538.757 26.393 537.226 26.51 535.694 26.864C531.925 27.571 528.274 28.277 524.504 29.22C519.557 30.398 514.845 31.929 510.134 33.578C505.893 34.991 501.771 36.758 497.648 38.407C492.112 40.645 486.693 42.883 481.039 45.004C476.21 46.771 471.38 48.537 466.433 50.069C462.075 51.482 457.717 52.66 453.358 53.838C446.173 55.723 438.988 57.372 431.685 58.785C427.798 59.492 423.793 60.081 419.905 60.788C417.196 61.259 414.369 61.494 411.542 61.848C411.189 61.966 410.836 61.848 410.482 61.966C410.129 61.966 409.775 61.966 409.304 62.083C408.951 62.201 408.48 62.083 408.009 62.201C407.655 62.201 407.184 62.201 406.831 62.201C406.359 62.319 405.771 62.201 405.299 62.319C404.71 62.319 404.121 62.319 403.532 62.319C402.708 62.437 401.766 62.319 400.941 62.437C400.705 62.437 400.352 62.555 399.881 62.201C402.355 60.552 405.064 59.374 407.537 57.843C412.013 55.252 416.49 52.542 420.966 49.951C424.264 48.066 427.444 46.299 430.742 44.415C435.454 41.823 440.166 39.35 444.877 36.876C450.178 34.167 455.479 31.575 460.897 29.102C465.137 27.099 469.496 25.215 473.854 23.33C478.566 21.328 483.395 19.443 488.342 17.794C494.939 15.438 501.653 13.436 508.602 12.022C512.018 11.315 515.434 10.844 518.85 10.255C519.204 10.137 519.557 10.255 519.91 10.137C520.735 10.255 521.677 10.02 522.502 9.90201C522.855 9.78401 523.209 9.902 523.562 9.784C523.915 9.784 524.151 9.784 524.504 9.784C524.975 9.666 525.447 9.78399 525.918 9.66599C526.271 9.66599 526.742 9.66599 527.096 9.66599C527.685 9.43099 528.274 9.666 528.745 9.548C529.334 9.548 529.923 9.548 530.512 9.548C531.336 9.313 532.161 9.666 532.985 9.431H545.589C546.531 9.666 547.356 9.431 548.298 9.548C549.005 9.548 549.712 9.548 550.418 9.548C551.007 9.784 551.596 9.54799 552.067 9.66599H553.834C554.306 9.90199 554.659 9.666 555.13 9.784C555.601 9.784 556.072 9.784 556.544 9.784C556.897 10.02 557.368 9.78401 557.839 9.90201H559.017C559.371 10.137 559.842 9.90199 560.313 10.02C560.666 10.02 560.902 10.02 561.255 10.02C561.609 10.255 562.08 10.02 562.551 10.137C562.904 10.137 563.14 10.137 563.493 10.137C563.847 10.255 564.2 10.137 564.553 10.255C565.378 10.373 566.32 10.609 567.145 10.491C567.498 10.726 567.852 10.491 568.205 10.609C572.21 11.198 576.215 11.669 580.337 12.258C584.696 12.847 589.054 13.553 593.53 14.378C598.242 15.202 602.953 16.027 607.547 16.969C611.788 17.794 616.028 18.618 620.151 19.325C625.098 20.267 630.045 21.092 634.993 22.034C639.822 22.859 644.652 23.683 649.481 24.39C653.015 24.861 656.666 25.45 660.2 25.686C660.553 25.921 660.907 25.686 661.26 25.804C661.614 25.804 661.849 25.804 662.202 25.804C662.556 25.921 662.909 25.804 663.263 25.921C663.616 25.921 663.852 25.921 664.205 25.921C664.558 26.157 665.029 25.921 665.501 26.039C665.854 26.039 666.207 26.039 666.679 26.039C667.15 26.275 667.503 26.039 667.974 26.157C668.445 26.157 668.917 26.157 669.27 26.157C669.859 26.393 670.448 26.157 670.919 26.275H672.686C673.51 26.51 674.335 26.275 675.16 26.393C678.222 26.51 681.285 26.51 684.229 26.393C684.936 26.275 685.643 26.51 686.35 26.275C686.821 26.275 687.41 26.275 687.881 26.275C688.352 26.157 688.706 26.275 689.177 26.157C689.53 26.157 689.883 26.157 690.355 26.157C690.708 26.039 691.061 26.157 691.415 26.039C691.65 26.039 691.886 26.039 692.121 26.039C692.475 25.921 692.828 26.039 693.182 25.921C696.362 25.686 699.307 24.979 702.369 24.272C703.429 24.037 704.372 23.683 705.432 23.448C706.021 23.33 706.492 23.448 707.081 23.683V24.272C706.256 24.508 705.785 25.097 705.079 25.45C702.369 26.746 699.542 27.571 696.715 28.16C693.771 28.866 690.826 29.337 687.881 29.691C687.528 29.809 687.174 29.691 686.821 29.809C686.467 29.809 686.232 29.809 685.879 29.809C685.525 29.926 685.172 29.809 684.818 29.926C684.465 29.926 684.112 29.926 683.641 29.926C683.169 30.044 682.698 29.926 682.227 30.044C681.756 30.044 681.167 30.044 680.696 30.044C679.989 30.28 679.282 29.926 678.575 30.162C677.515 30.162 676.455 30.162 675.395 30.162C671.979 30.28 668.681 30.28 665.265 30.162C664.087 30.162 662.909 30.162 661.731 30.162C660.789 29.926 659.847 30.162 658.787 30.044H656.431C655.842 29.809 655.135 30.044 654.546 29.926C653.957 29.926 653.25 29.926 652.544 29.926C651.955 29.691 651.248 29.926 650.659 29.809C650.188 29.809 649.599 29.809 649.128 29.809C648.656 29.573 648.185 29.809 647.596 29.691H646.065C645.476 29.455 644.887 29.691 644.416 29.573C644.063 29.573 643.591 29.573 643.238 29.573C642.767 29.337 642.296 29.573 641.825 29.455C641.471 29.455 641 29.455 640.647 29.455C640.175 29.22 639.704 29.455 639.233 29.337C638.88 29.337 638.409 29.337 638.055 29.337C637.584 29.102 637.113 29.337 636.642 29.22C636.288 29.22 636.053 29.22 635.699 29.22C635.346 28.984 634.875 29.22 634.404 29.102C634.05 29.102 633.579 29.102 633.226 29.102C632.872 27.806 632.401 28.042 632.048 27.806Z" fill="#929292"/>
<path d="M407.655 56.665C406.831 57.725 405.535 58.079 404.475 58.785C403.179 59.61 401.766 60.317 400.234 61.141C400.588 61.141 400.706 61.259 400.823 61.259C400.823 61.377 400.823 61.377 400.706 61.377C399.999 61.259 399.292 61.377 398.585 61.73C391.871 64.91 384.921 67.148 377.618 68.68C375.145 69.151 372.553 69.622 370.08 69.858C369.726 69.975 369.373 69.858 369.02 69.975C368.666 69.975 368.431 69.975 368.077 69.975C367.724 70.093 367.253 69.975 366.782 70.093C366.428 70.093 365.957 70.093 365.604 70.093C365.015 70.211 364.426 70.093 363.955 70.211C362.659 70.211 361.363 70.211 359.95 70.211C359.596 70.329 359.243 70.329 359.007 70.211C357.712 70.211 356.416 70.211 355.002 70.211C354.413 69.975 353.825 70.211 353.353 70.093C352.882 70.093 352.411 70.093 352.058 70.093C351.704 69.858 351.233 70.093 350.762 69.975C350.526 69.975 350.291 69.975 349.937 69.975C349.584 69.74 349.231 69.975 348.877 69.858C345.697 69.622 342.517 69.033 339.454 68.326C334.742 67.148 330.031 65.853 325.437 64.086C321.079 62.437 316.838 60.434 312.715 58.314C308.004 55.841 303.41 52.896 299.052 49.833C294.693 46.771 290.571 43.237 286.094 40.528C281.618 37.701 277.025 35.227 272.077 33.107C268.19 31.34 264.303 29.926 260.18 28.631C257 27.571 253.702 26.746 250.404 26.039C247.459 25.45 244.514 24.861 241.569 24.272C239.685 23.919 237.682 23.683 235.68 23.448C235.326 23.212 234.973 23.448 234.62 23.33C234.384 23.33 234.148 23.33 233.913 23.33C233.56 23.094 233.206 23.33 232.853 23.212C232.499 23.212 232.264 23.212 231.91 23.212C231.557 23.094 231.204 23.212 230.85 23.094C230.497 23.094 230.144 23.094 229.672 23.094C229.319 22.859 228.848 23.094 228.377 22.977C227.906 22.977 227.434 22.977 226.963 22.977C226.374 22.741 225.785 22.977 225.314 22.859C224.725 22.859 224.136 22.859 223.547 22.859C222.84 22.623 222.016 22.859 221.309 22.741C220.131 22.741 218.953 22.741 217.775 22.741C214.948 22.623 212.121 22.623 209.412 22.741C208.117 22.741 206.821 22.741 205.407 22.741C204.583 22.977 203.758 22.623 202.934 22.859C202.227 22.859 201.52 22.859 200.814 22.859C200.225 22.977 199.636 22.859 199.164 22.977C198.575 22.977 197.987 22.977 197.398 22.977C196.926 23.094 196.573 22.977 196.102 23.094C195.631 23.094 195.16 23.094 194.806 23.094C194.335 23.212 193.864 23.094 193.393 23.212C192.921 23.212 192.45 23.212 191.979 23.212C191.626 23.33 191.272 23.212 190.919 23.33C190.566 23.33 190.33 23.33 189.977 23.33C189.623 23.448 189.152 23.33 188.681 23.448C188.328 23.448 188.092 23.448 187.739 23.448C187.385 23.566 186.914 23.448 186.443 23.566C185.501 23.683 184.558 23.683 183.616 23.801C183.263 23.919 182.909 23.801 182.556 23.919C182.32 23.919 182.085 23.919 181.731 23.919C181.378 24.037 181.025 23.919 180.671 24.037C178.787 24.272 176.902 24.39 175.017 24.626C173.133 24.861 171.13 25.097 169.245 25.45C167.007 25.804 164.769 26.039 162.531 26.393C159.587 26.864 156.642 27.335 153.697 27.806C151.106 28.277 148.632 28.748 146.04 29.102C143.449 29.573 140.858 29.926 138.266 30.398C134.379 31.104 130.374 31.811 126.487 32.518C122.247 33.225 118.006 34.049 113.766 34.638C110.703 35.109 107.758 35.58 104.696 36.052C102.693 36.287 100.809 36.523 98.806 36.758C98.453 36.876 98.099 36.758 97.746 36.876C97.51 36.876 97.275 36.876 97.039 36.876C96.686 36.994 96.333 36.876 95.979 36.994C95.037 37.112 94.094 37.112 93.152 37.229C92.799 37.347 92.328 37.229 91.856 37.347C91.503 37.347 91.267 37.347 90.914 37.347C90.561 37.465 90.09 37.347 89.618 37.465C89.265 37.465 88.794 37.465 88.441 37.465C88.087 37.583 87.616 37.465 87.145 37.583C86.791 37.583 86.32 37.583 85.967 37.583C85.496 37.701 85.025 37.465 84.553 37.701C84.082 37.701 83.611 37.701 83.14 37.701C82.551 37.818 81.962 37.583 81.491 37.818C81.02 37.818 80.431 37.818 79.96 37.818C79.253 38.054 78.546 37.701 77.839 37.936C77.133 37.936 76.426 37.936 75.719 37.936C74.894 38.172 74.07 37.818 73.245 38.054C71.714 38.054 70.183 38.054 68.6515 38.054C65.9423 38.172 63.2331 38.172 60.6417 38.054C59.2282 38.054 57.8147 38.054 56.519 38.054C55.6945 37.818 54.8699 38.054 54.0454 37.936C53.4564 37.936 52.7497 37.936 52.1607 37.936C51.5718 37.701 50.9828 37.936 50.5117 37.818C50.0405 37.818 49.4515 37.818 48.9804 37.818C48.5092 37.583 48.1558 37.818 47.6847 37.701C47.3313 37.701 47.0957 37.701 46.7423 37.701C46.2712 37.465 45.8 37.701 45.3288 37.583C44.3865 37.465 43.3264 37.465 42.3841 37.347C42.0307 37.229 41.6773 37.347 41.3239 37.229C41.0884 37.229 40.8528 37.229 40.6172 37.229C40.2638 36.994 39.9104 37.229 39.5571 37.112C36.6123 36.641 33.6675 36.405 30.7227 35.816C26.6 35.109 22.5951 34.049 18.5902 32.989C15.1742 32.047 11.8761 30.751 8.57792 29.22C7.16442 28.631 5.86872 27.806 4.69082 26.746C4.21962 26.275 3.74852 25.804 4.21962 24.979C4.57302 24.861 5.04422 24.861 5.39762 24.979C8.10682 25.804 10.9337 26.628 13.643 27.453C18.5902 28.866 23.5374 29.926 28.4847 30.869C31.1939 31.34 34.0209 31.811 36.8479 31.929C37.2012 32.164 37.5546 31.929 37.908 32.047C38.2614 32.047 38.4969 32.047 38.8503 32.047C39.2037 32.282 39.5571 32.047 39.9104 32.164C40.2638 32.164 40.735 32.164 41.0883 32.164C41.5595 32.4 42.0307 32.164 42.5018 32.282H43.7975C44.3865 32.518 45.0933 32.282 45.6822 32.4C46.5068 32.4 47.2135 32.518 48.038 32.4C49.4515 32.636 50.865 32.4 52.3963 32.518C53.4564 32.518 54.3988 32.518 55.4589 32.518C56.9902 32.282 58.5215 32.636 59.935 32.4C60.7595 32.4 61.7018 32.4 62.5264 32.4C63.1153 32.282 63.7043 32.4 64.1755 32.282C64.7644 32.282 65.3534 32.282 65.9423 32.282C66.4135 32.164 66.8847 32.282 67.3558 32.164C67.7092 32.164 68.1804 32.164 68.5337 32.164C68.8871 32.047 69.358 32.164 69.829 32.047C70.183 32.047 70.654 32.047 71.007 32.047C71.361 31.929 71.714 32.047 72.067 31.929C72.421 31.929 72.656 31.929 73.01 31.929C73.363 31.811 73.717 31.929 74.07 31.811C74.306 31.811 74.541 31.811 74.894 31.811C75.248 31.693 75.601 31.811 75.955 31.693C79.253 31.458 82.551 30.869 85.849 30.398C94.448 28.984 102.811 27.217 111.174 25.097C119.184 22.977 127.076 20.739 134.968 18.147C148.279 13.907 161.471 9.54798 175.017 6.24998C182.556 4.36598 190.094 2.59898 197.751 1.30298C199.518 1.06698 201.167 0.831978 202.934 0.595978C203.287 0.478978 203.641 0.595989 203.994 0.478989C204.347 0.478989 204.818 0.478989 205.172 0.478989C205.525 0.360989 205.879 0.478977 206.232 0.360977C206.703 0.360977 207.174 0.360977 207.528 0.360977C208.234 0.124977 208.941 0.478981 209.648 0.242981C212.239 0.242981 214.948 0.242981 217.54 0.242981C218.129 0.478981 218.836 0.242977 219.425 0.360977C219.896 0.360977 220.367 0.360977 220.72 0.360977C221.074 0.595977 221.545 0.360989 222.016 0.478989H222.723C223.076 0.713989 223.429 0.478978 223.783 0.595978C228.612 1.30298 233.324 2.24498 238.036 3.65898C243.336 5.30798 248.519 7.54598 253.466 10.137C260.416 13.789 267.012 18.147 273.491 22.623C282.325 28.748 291.042 34.874 300.347 40.174C308.004 44.415 315.896 47.948 324.259 50.54C329.56 52.189 334.86 53.367 340.396 54.191C340.985 54.309 341.456 54.427 342.045 54.427C342.399 54.663 342.752 54.427 343.106 54.545C343.93 54.78 344.637 54.898 345.461 54.78C345.815 55.016 346.168 54.78 346.521 54.898C346.875 54.898 347.228 54.898 347.699 54.898C348.053 55.016 348.406 54.898 348.76 55.016C349.231 55.016 349.702 55.016 350.173 55.016C350.526 55.252 350.998 55.016 351.469 55.134C351.94 55.134 352.411 55.134 352.764 55.134C353.236 55.369 353.589 55.134 354.06 55.252C354.531 55.252 355.002 55.252 355.474 55.252C355.827 55.487 356.298 55.252 356.769 55.369C357.24 55.369 357.712 55.369 358.065 55.369C358.536 55.605 359.007 55.369 359.596 55.487C360.068 55.487 360.656 55.487 361.128 55.487C361.599 55.723 362.07 55.487 362.541 55.605C363.012 55.605 363.601 55.605 364.072 55.605C364.544 55.84 365.133 55.605 365.604 55.723C366.193 55.723 366.782 55.723 367.371 55.723C367.96 55.958 368.666 55.723 369.255 55.84C369.844 55.84 370.433 55.84 371.022 55.84C371.611 56.076 372.2 55.841 372.671 55.958C373.496 55.958 374.202 55.958 375.027 55.958C375.734 56.194 376.441 55.958 377.147 56.076C377.972 56.076 378.796 56.076 379.739 56.076C380.681 56.312 381.623 56.076 382.683 56.194C383.979 56.194 385.393 56.194 386.688 56.194C387.866 56.429 388.926 56.312 390.104 56.312C392.814 56.312 395.523 56.429 398.114 56.194C399.056 56.194 399.999 56.194 400.823 56.194C401.412 55.958 402.119 56.312 402.708 56.076H404.004C404.357 55.958 404.828 56.076 405.299 55.958C406.006 57.136 406.831 57.018 407.655 56.665Z" fill="#929292"/>
<path d="M44.6221 78.221C47.6847 78.692 50.6295 79.281 53.5742 80.223C64.7644 84.228 71.714 92.12 75.13 103.428C75.483 104.724 75.601 106.02 75.837 107.198C75.955 107.551 75.955 108.022 75.837 108.375C71.596 108.375 67.4736 108.375 63.2331 108.258C60.1706 108.258 56.8724 106.02 55.6945 103.31C54.281 99.894 51.6896 97.892 48.3914 96.478C46.2712 95.536 44.0331 95.065 41.6773 94.712C40.8528 94.594 40.0282 94.594 39.2037 94.476C37.5546 94.358 35.9055 94.358 34.2564 94.476C28.6025 94.712 22.7129 98.128 21.1816 103.664C19.8859 107.904 21.4172 112.027 25.3043 114.147C29.8982 116.621 34.8454 118.152 39.7926 119.683C46.0356 121.45 52.3963 122.982 58.4037 125.337C62.9975 127.104 67.238 129.342 70.654 132.994C74.188 136.528 76.19 140.886 76.897 145.833C77.015 146.775 77.133 147.718 77.368 148.542C77.486 149.602 77.486 150.663 77.368 151.723C76.779 157.377 75.13 162.677 71.832 167.389C69.476 170.805 66.5313 173.396 62.9975 175.517C58.7571 177.99 54.281 179.286 49.4515 179.993C49.0982 179.993 48.627 180.11 48.2736 180.228C47.9202 180.346 47.5669 180.228 47.2135 180.346C46.7423 180.346 46.2712 180.228 45.9178 180.582H44.2687C43.9153 180.464 43.4442 180.464 43.0908 180.582H40.0282C39.4393 180.464 38.9681 180.464 38.3791 180.582H36.1411C33.9031 180.346 31.7828 180.228 29.5448 179.875C22.8307 178.579 16.8233 175.752 11.6405 171.276C5.86872 166.329 2.33502 160.086 0.685921 152.665C0.450321 151.723 0.450321 150.78 0.332521 149.72C0.332521 149.367 0.450322 149.013 0.214722 148.66V147.836C5.51532 147.836 10.8159 147.953 16.1166 147.836C16.9411 147.953 17.8834 147.836 18.708 147.953C19.0613 147.953 19.4147 147.836 19.6503 148.071C20.2393 153.018 22.3595 156.905 26.7178 159.379C29.427 160.91 32.1362 162.088 35.3166 162.206C35.6699 162.442 36.1411 162.206 36.6123 162.324C38.7325 162.442 40.8528 162.442 42.8552 162.324C43.2086 162.206 43.562 162.324 43.9153 162.206C48.7448 161.735 52.9853 160.204 55.6945 155.963C57.6969 152.783 57.4613 148.542 54.9877 145.715C53.4564 143.831 51.3362 142.653 49.2159 141.71C42.973 138.883 36.1411 137.705 29.6626 136.056C25.5399 134.996 21.4172 133.701 17.5301 131.934C14.1141 130.402 10.9337 128.518 8.10672 125.926C5.16202 123.217 3.15952 119.919 1.98162 116.15C1.39262 114.383 1.03932 112.616 0.92152 110.849C0.80372 110.378 0.92152 110.025 0.80372 109.553C0.80372 108.375 0.80372 107.198 0.80372 106.137C1.03932 105.666 0.80372 105.313 0.92152 104.842C1.15712 101.544 2.09942 98.481 3.63072 95.654C4.80862 93.416 6.22212 91.413 7.87122 89.647C11.7583 85.524 16.4699 82.579 21.7706 80.459C24.362 79.399 26.9534 78.928 29.6626 78.456C30.0159 78.339 30.3693 78.456 30.7227 78.339C30.9583 78.339 31.0761 78.339 31.3117 78.339C31.7828 78.221 32.254 78.339 32.7252 78.221H34.492C36.1411 78.103 37.6724 78.103 39.3215 78.221C39.9104 78.221 40.6172 78.221 41.2061 78.221C41.6773 78.456 42.0307 78.221 42.5018 78.339C42.8552 78.339 43.0908 78.339 43.4442 78.339C43.9153 78.221 44.2687 78.103 44.6221 78.221ZM597.064 180.228C597.417 180.346 597.771 180.228 598.124 180.346C598.595 180.346 599.066 180.228 599.42 180.582H599.773C600.126 180.346 600.48 180.464 600.833 180.464C601.775 180.464 602.836 180.582 603.778 180.346C604.367 180.346 604.956 180.346 605.545 180.346C605.898 180.11 606.369 180.346 606.841 180.228C610.728 179.757 614.497 178.932 618.031 177.401C622.271 175.517 626.041 172.925 629.221 169.274C632.519 165.504 634.757 161.382 636.053 156.552C636.288 155.728 635.935 155.728 635.346 155.728C630.87 155.728 626.394 155.728 621.918 155.728C621.564 155.963 621.211 155.728 620.858 155.845C619.798 156.081 618.737 156.199 617.913 156.905C616.617 158.083 615.321 159.261 614.026 160.439C612.023 162.088 609.668 163.266 607.076 163.502C606.723 163.737 606.369 163.502 606.016 163.62C605.545 163.737 605.191 163.737 604.72 163.62C603.66 163.737 602.6 163.737 601.54 163.62C601.187 163.737 600.833 163.62 600.362 163.62C600.009 163.502 599.655 163.62 599.302 163.502C596.004 163.148 592.941 161.853 590.585 159.615C585.285 154.785 583.518 148.424 583.164 141.593C583.047 140.415 583.047 139.237 583.164 137.941C583.164 137.47 583.164 136.881 583.164 136.41C583.282 136.056 583.164 135.585 583.282 135.114C583.282 132.994 583.871 130.874 584.46 128.871C587.052 120.861 593.53 116.856 600.951 116.503C602.247 116.385 603.542 116.385 604.72 116.503C605.898 116.503 607.076 116.856 608.136 117.092C611.317 118.034 614.026 119.683 615.675 122.746C615.91 123.099 616.028 123.099 616.382 123.099C622.389 123.099 628.514 123.099 634.639 123.099C634.639 122.864 634.521 122.628 634.521 122.51C632.637 117.092 630.045 112.145 625.569 108.493C623.567 106.844 621.447 105.431 619.091 104.253C614.968 102.132 610.492 101.072 605.898 100.601C605.427 100.483 604.838 100.601 604.367 100.483C602.836 100.483 601.304 100.483 599.891 100.483C599.42 100.719 598.948 100.483 598.36 100.601C594.355 101.072 590.467 102.015 586.816 103.782C581.987 106.137 577.746 109.318 574.33 113.558C572.21 116.15 570.561 118.977 569.147 122.039C567.498 125.809 566.438 129.813 565.967 133.936C565.849 134.29 565.967 134.643 565.849 134.996C565.849 135.232 565.849 135.467 565.849 135.821C565.731 136.292 565.849 136.763 565.731 137.234C565.731 137.823 565.731 138.412 565.731 139.001C565.614 140.179 565.614 141.475 565.731 142.653V144.184C565.967 144.537 565.731 145.009 565.849 145.48C566.085 147.364 566.32 149.367 566.791 151.251C567.616 155.256 569.029 159.026 571.032 162.677C572.917 166.093 575.272 169.274 578.335 171.983C581.398 174.692 584.814 176.93 588.818 178.226C591.528 179.404 594.237 179.993 597.064 180.228ZM706.963 142.064C706.963 142.182 707.081 142.182 707.199 142.064V125.337C707.199 125.22 707.081 125.22 706.963 125.337V142.064ZM707.081 156.199C706.963 156.081 706.963 156.081 706.845 156.199C706.845 161.028 706.845 165.858 706.845 170.569C706.845 170.923 706.728 171.276 707.081 171.512V156.199ZM707.081 142.064C706.963 142.064 706.963 142.064 706.845 142.064C706.845 146.775 706.845 151.487 706.845 156.199C706.963 156.199 706.963 156.199 707.081 156.199V142.064ZM39.9104 180.699C39.3215 180.464 38.8503 180.346 38.2614 180.699H39.9104ZM441.579 180.699C440.99 180.464 440.519 180.346 439.93 180.699H441.579ZM445.231 180.699C445.348 180.582 445.348 180.582 445.231 180.582C444.76 180.582 444.288 180.464 443.817 180.699H445.231ZM706.963 124.277C706.963 124.395 707.081 124.395 707.081 124.277V123.099C707.081 123.099 706.963 123.099 706.845 123.099C706.963 123.453 706.963 123.924 706.963 124.277ZM44.1509 180.699C43.7975 180.346 43.3264 180.464 42.973 180.699H44.1509ZM446.291 180.699C446.055 180.346 445.584 180.582 445.348 180.582V180.699H446.291ZM706.963 124.277C706.963 124.631 706.963 124.984 706.963 125.337C706.963 125.337 707.081 125.337 707.199 125.337V124.277C707.081 124.277 706.963 124.277 706.963 124.277ZM319.665 100.955C319.194 101.19 318.605 100.955 318.134 101.072C317.663 101.19 317.191 101.19 316.72 101.308C309.653 102.25 303.292 104.488 297.638 108.964C294.458 111.556 292.22 114.854 290.688 118.623C289.275 121.921 288.45 125.337 288.215 128.871C288.097 129.225 288.215 129.578 288.097 129.931C288.097 130.402 288.097 130.874 288.097 131.227C287.861 132.287 288.215 133.465 287.979 134.525C288.097 135.821 288.097 137.117 287.979 138.412C288.097 138.766 288.097 139.237 288.097 139.59C288.097 152.547 288.097 165.622 288.097 178.579C288.097 178.932 287.861 179.286 288.215 179.639C288.568 179.639 288.921 179.639 289.275 179.639C295.047 179.639 300.818 179.639 306.59 179.639C307.65 179.639 307.768 179.286 307.768 178.344C307.768 163.148 307.768 148.071 307.768 132.876C307.768 132.051 307.768 131.227 307.886 130.402C308.239 125.809 310.242 122.275 314.482 120.272C319.076 118.152 323.67 118.27 328.146 120.508C331.326 122.039 333.093 124.631 333.682 128.047C333.918 129.578 334.036 130.991 334.036 132.523C334.036 147.718 334.036 162.913 334.036 178.108C334.036 179.05 334.153 179.404 335.213 179.286C340.985 179.286 346.757 179.286 352.529 179.286C353.471 179.286 353.707 179.05 353.707 178.108C353.707 162.913 353.707 147.718 353.707 132.523C353.707 131.227 353.707 129.931 353.942 128.636C354.413 125.455 355.827 122.746 358.654 121.097C362.541 118.741 366.546 118.152 370.904 119.33C375.38 120.626 378.796 123.217 379.856 128.047C380.21 129.46 380.328 130.991 380.328 132.405C380.328 144.773 380.328 157.259 380.328 169.627C380.328 175.281 383.626 178.815 389.162 179.168C392.696 179.404 396.112 179.168 399.645 179.286C400.47 179.286 400.234 178.815 400.234 178.344C400.234 173.985 400.234 169.627 400.234 165.269C400.234 154.078 400.234 142.771 400.234 131.58C399.999 131.109 400.234 130.638 400.117 130.049C399.999 129.225 399.763 128.4 399.645 127.575C398.35 119.566 394.463 113.087 388.102 108.14C382.801 104.017 376.794 101.544 370.198 100.837C369.726 100.719 369.137 100.837 368.666 100.719C367.253 100.719 365.839 100.719 364.426 100.719C363.955 100.955 363.483 100.719 362.894 100.837C359.95 101.19 357.005 101.779 354.178 102.839C350.644 104.253 347.464 106.255 344.872 109.082C344.048 110.025 344.048 110.024 343.106 109.2C340.514 106.726 337.687 104.488 334.271 103.075C330.973 101.661 327.557 101.072 324.023 100.719C323.434 100.601 322.728 100.837 322.139 100.601C321.432 100.955 320.607 100.955 319.665 100.955ZM141.8 102.721C141.211 102.957 140.622 102.721 140.151 102.839C139.68 102.957 139.209 103.075 138.62 103.075C136.264 103.546 134.261 104.842 132.966 106.844C132.023 108.375 131.552 110.025 131.552 111.909C131.434 112.263 131.552 112.616 131.552 112.969C131.552 116.974 131.552 120.861 131.552 124.866C131.552 125.22 131.434 125.455 131.67 125.809C131.67 130.756 131.67 135.585 131.67 140.532C131.67 143.359 131.67 146.186 131.67 149.131C131.552 149.602 131.67 149.956 131.552 150.427C131.434 151.016 131.434 151.487 131.317 152.076C130.61 154.903 129.314 157.377 127.076 159.144C124.838 160.91 122.364 162.088 119.537 162.324C119.066 162.442 118.713 162.324 118.242 162.442C117.888 162.442 117.417 162.442 117.064 162.442C116.593 162.324 116.121 162.442 115.533 162.324C113.883 162.324 112.234 161.735 110.821 160.91C107.169 158.672 105.756 155.139 105.52 151.134C105.285 150.663 105.52 150.191 105.402 149.602C105.402 148.778 105.402 148.071 105.402 147.247C105.402 132.758 105.402 118.388 105.402 103.899C105.402 103.075 105.285 102.604 104.342 102.721C104.225 102.721 104.107 102.721 103.989 102.721C103.636 102.839 103.282 102.839 102.929 102.839C97.51 102.839 92.092 102.839 86.674 102.839C86.32 102.839 85.967 102.721 85.613 102.957C85.613 108.493 85.613 114.029 85.613 119.566C85.613 124.277 85.613 128.871 85.613 133.583C85.378 133.936 85.496 134.172 85.496 134.525C85.496 136.41 85.496 138.294 85.496 140.297C85.496 142.653 85.378 145.009 85.496 147.364C85.496 148.189 85.496 149.013 85.496 149.956C85.731 150.427 85.496 150.78 85.613 151.251C85.849 153.372 86.085 155.374 86.556 157.377C87.263 160.439 88.205 163.502 89.854 166.211C91.385 168.802 93.152 171.158 95.39 173.161C98.217 175.634 101.515 177.401 105.049 178.579C107.405 179.404 109.879 179.875 112.352 180.11C112.706 180.228 113.059 180.11 113.412 180.228C113.766 180.228 114.001 180.228 114.355 180.228C114.944 180.346 115.533 180.11 116.004 180.346C117.771 180.346 119.537 180.346 121.304 180.346C121.893 180.11 122.482 180.346 122.953 180.228C123.307 180.228 123.542 180.228 123.896 180.228C124.249 180.11 124.602 180.228 124.956 180.11C129.079 179.404 133.201 178.461 136.971 176.341C141.918 173.514 145.569 169.274 147.807 164.091C149.456 160.204 150.281 156.199 150.87 152.076C150.988 151.723 150.87 151.369 150.988 151.016C150.988 150.545 150.988 150.074 150.988 149.72C151.106 149.131 150.87 148.425 151.106 147.836C151.106 147.718 151.106 147.6 151.106 147.482C151.106 132.994 151.106 118.505 151.223 104.135C151.223 103.075 150.87 102.957 149.928 102.957C147.101 102.839 144.509 102.721 141.8 102.721ZM180.436 81.519C179.847 81.166 179.14 81.401 178.433 81.401C175.017 81.401 171.719 81.283 168.303 81.401C167.832 81.519 167.361 81.519 166.89 81.637C164.298 82.226 162.413 83.639 161.236 86.113C160.411 87.88 160.175 89.764 160.175 91.649C160.175 120.626 160.175 149.602 160.175 178.697C160.175 179.521 160.411 179.639 161.236 179.639C167.125 179.639 173.133 179.639 179.022 179.639C180.318 179.639 180.318 179.639 180.318 178.226C180.318 147.482 180.318 116.739 180.318 85.995C180.436 84.464 180.436 83.05 180.436 81.519ZM486.811 132.405C486.693 132.758 486.811 133.112 486.693 133.465C486.693 133.818 486.693 134.054 486.693 134.407C486.575 134.879 486.693 135.467 486.575 135.939C486.575 136.528 486.575 137.234 486.575 137.823C486.458 140.297 486.458 142.653 486.575 145.126C486.575 156.552 486.575 167.978 486.575 179.404C486.811 179.639 487.047 179.521 487.282 179.521C493.525 179.521 499.768 179.521 506.011 179.521C506.247 179.521 506.482 179.639 506.6 179.404C506.6 179.168 506.6 178.932 506.6 178.697C506.6 164.562 506.6 150.545 506.6 136.41C506.6 136.174 506.6 135.821 506.6 135.585C506.718 135.114 506.6 134.761 506.718 134.29C506.953 130.52 509.074 127.811 512.018 125.809C515.552 123.453 519.557 122.628 523.562 122.393C524.151 122.157 524.74 122.393 525.211 122.275C526.036 122.275 526.978 122.157 527.802 122.275C528.745 122.393 528.745 122.039 528.745 121.332C528.745 115.207 528.745 109.082 528.745 102.957C527.214 102.721 525.8 102.839 524.269 102.839C523.798 102.839 523.209 102.839 522.737 102.839C522.384 102.957 522.031 102.839 521.677 102.957C521.324 102.957 520.971 102.957 520.735 102.957C520.382 103.193 520.028 102.957 519.675 103.075C519.321 103.193 518.85 103.193 518.497 103.31C510.487 104.606 503.066 106.962 496.706 112.38C493.29 115.207 490.816 118.741 489.049 122.746C487.871 125.926 487.047 129.107 486.811 132.405ZM546.531 102.721C546.178 102.839 545.825 102.721 545.471 102.839C540.995 103.546 538.521 105.784 537.815 110.496C537.697 110.849 537.815 111.202 537.697 111.556C537.697 111.674 537.697 111.791 537.697 111.909C537.697 134.054 537.697 156.199 537.697 178.461C537.697 179.286 537.933 179.404 538.757 179.404C543.704 179.404 548.534 179.404 553.481 179.404C554.895 179.404 556.426 179.404 557.839 179.521C558.31 179.286 558.075 178.815 558.075 178.461C558.075 153.49 558.075 128.518 558.075 103.546C558.075 103.193 558.193 102.839 557.957 102.604C553.952 102.721 550.183 102.721 546.531 102.721ZM537.697 89.764C537.579 91.885 537.697 94.005 537.697 96.243C537.697 96.361 537.815 96.361 537.815 96.478C540.877 96.478 543.822 96.478 546.885 96.478C550.536 96.478 554.07 96.478 557.604 96.478C557.721 96.361 557.721 96.361 557.721 96.243C557.721 91.413 557.721 86.584 557.721 81.755C557.721 81.401 557.604 81.166 557.133 81.283C553.717 81.283 550.301 81.166 546.885 81.401C541.82 81.519 538.05 85.288 537.697 89.764ZM463.96 81.519C463.96 80.93 463.488 81.283 463.253 81.283C461.721 81.283 460.072 81.283 458.541 81.283C455.832 81.283 453.123 81.166 450.531 81.283C450.296 81.283 450.178 81.283 449.942 81.283C448.175 81.283 446.762 81.99 445.82 83.521C444.171 86.113 442.404 88.586 440.755 91.178C439.694 92.827 438.517 94.476 437.456 96.243C440.519 96.243 443.464 96.243 446.526 96.243C446.88 96.243 447.233 96.243 447.586 96.243C449.236 96.007 450.414 95.183 451.591 94.005C455.596 89.764 459.719 85.642 463.96 81.519ZM688.117 155.492C688.706 150.898 688.117 146.186 688.352 141.239C685.761 143.242 682.934 143.831 680.107 144.42C675.984 145.362 671.744 145.833 667.503 146.893C665.029 147.482 662.674 148.66 661.496 151.016C658.669 156.434 660.907 162.442 666.443 164.444C671.39 166.211 676.337 165.975 681.285 164.209C685.29 162.795 687.528 159.732 688.117 155.492ZM707.081 170.451C707.081 170.805 706.963 171.158 707.199 171.512V179.757C706.845 180.11 706.492 179.993 706.021 179.993C702.487 179.993 698.836 179.993 695.302 179.993C693.417 179.993 692.004 179.05 690.944 177.637C690.59 177.166 690.237 176.93 689.648 177.283C684.701 179.875 679.4 180.582 673.864 180.464C672.804 180.464 671.626 180.582 670.566 180.346C669.859 180.346 669.152 180.346 668.445 180.346C667.974 180.11 667.621 180.346 667.15 180.228H666.207C665.854 179.993 665.501 180.228 665.147 180.11C662.674 179.875 660.2 179.286 657.726 178.461C654.193 177.283 650.894 175.517 648.185 172.925C645.24 170.098 643.356 166.564 642.296 162.559C642.06 161.617 641.942 160.557 641.825 159.615C641.707 159.261 641.825 158.908 641.707 158.555C641.707 157.966 641.707 157.377 641.707 156.788C641.589 156.434 641.589 155.963 641.707 155.61C641.707 155.139 641.707 154.55 641.707 154.078C641.942 153.725 641.707 153.372 641.825 153.018C642.531 147.718 645.241 143.713 649.245 140.297C653.839 136.292 659.375 134.643 665.147 133.701C670.33 132.758 675.631 132.405 680.696 130.991C683.169 130.285 685.525 129.224 687.056 126.986C687.41 126.515 687.292 125.809 687.645 125.337C687.763 124.866 687.763 124.395 687.645 123.924C687.41 121.568 685.879 120.272 683.994 119.094C681.991 117.917 679.753 117.445 677.398 117.21C675.984 117.092 674.571 117.092 673.157 117.21C669.977 117.328 667.032 118.27 664.676 120.626C663.969 121.332 663.498 122.157 663.145 123.099C663.027 123.571 662.791 123.806 662.202 123.806C656.313 123.806 650.541 123.806 644.652 123.806C643.945 123.806 643.827 123.571 643.945 122.864C644.298 120.861 645.005 118.859 645.712 116.974C646.418 115.207 647.479 113.558 648.774 112.145C653.957 106.137 660.671 102.957 668.328 101.661C668.917 101.544 669.506 101.426 670.095 101.426C670.448 101.308 670.919 101.426 671.39 101.308C671.861 101.308 672.333 101.308 672.686 101.308C674.571 101.19 676.455 101.19 678.34 101.308C678.811 101.308 679.282 101.308 679.753 101.308C680.107 101.544 680.578 101.308 681.049 101.426C685.761 102.015 690.355 103.193 694.713 105.431C697.775 107.08 700.72 108.847 702.841 111.791C704.961 114.854 706.256 118.152 706.845 121.804C706.963 122.275 706.963 122.746 707.081 123.335C707.199 123.688 707.081 124.159 707.199 124.631C707.199 124.984 707.199 125.337 707.199 125.809C707.199 131.345 707.199 136.881 707.199 142.417C707.199 147.129 707.199 151.84 707.199 156.552C706.963 160.91 706.963 165.74 707.081 170.451ZM458.777 132.876C459.719 132.876 459.837 132.64 459.719 131.816C459.13 126.398 456.656 122.157 451.945 119.212C442.404 113.323 427.798 117.917 425.324 131.463C425.088 132.758 425.088 132.758 426.384 132.758H442.286V132.876C447.822 132.876 453.358 132.876 458.777 132.876ZM478.919 143.948C478.683 144.537 479.037 145.244 478.683 145.833C467.375 145.833 456.185 145.833 444.877 145.833C438.517 145.833 432.156 145.833 425.795 145.833C425.088 145.833 424.853 145.951 424.971 146.775C425.795 154.903 431.096 162.324 439.694 163.973C440.283 164.091 440.872 164.209 441.461 164.209C441.933 164.444 442.286 164.209 442.757 164.326C443.582 164.326 444.406 164.326 445.231 164.326C445.82 164.209 446.409 164.326 446.88 164.209C449.942 164.091 452.534 163.031 455.007 161.146C456.303 160.086 457.363 158.79 458.659 157.73C459.837 156.788 461.133 156.199 462.546 155.963C464.902 155.845 467.375 155.963 469.731 155.963C472.087 155.963 474.443 155.963 476.799 155.963C477.034 155.963 477.506 155.728 477.623 156.199C476.799 158.79 475.856 161.264 474.561 163.62C472.441 167.389 469.731 170.687 466.315 173.514C461.604 177.283 456.185 179.286 450.296 180.11C449.942 180.11 449.471 180.228 449.118 180.346C448.764 180.464 448.411 180.346 448.058 180.464C447.587 180.464 447.115 180.346 446.762 180.699H446.173C445.82 180.464 445.466 180.699 445.113 180.582C444.642 180.582 444.171 180.464 443.699 180.699H441.461C440.872 180.582 440.401 180.582 439.812 180.699H438.045C437.574 180.11 436.75 180.464 436.161 180.346C430.507 179.521 425.442 177.166 421.083 173.514C418.139 171.158 415.665 168.449 413.545 165.386C411.66 162.559 410.364 159.379 409.422 156.081C408.833 154.078 408.48 152.076 408.009 150.074C407.773 149.013 407.773 147.953 407.655 146.893C407.537 146.54 407.655 146.069 407.537 145.598C407.537 145.126 407.537 144.537 407.537 144.066C407.42 141.828 407.42 139.472 407.537 137.234C407.537 136.645 407.537 136.056 407.537 135.467C407.773 134.996 407.537 134.643 407.655 134.172C407.891 131.345 408.362 128.4 409.187 125.691C410.011 122.746 411.189 120.037 412.72 117.445C414.016 115.207 415.665 113.205 417.432 111.438C422.85 106.02 429.447 102.486 437.103 101.544C437.456 101.544 437.81 101.426 438.163 101.308C438.517 101.19 438.87 101.308 439.223 101.19C439.577 101.19 439.93 101.19 440.401 101.19C441.933 101.072 443.464 101.072 444.995 101.19C449.825 101.544 454.418 102.486 458.777 104.606C464.077 107.08 468.2 110.849 471.498 115.561C475.032 120.508 477.034 126.162 477.859 132.169C477.859 132.523 477.977 132.876 478.095 133.229C478.212 133.583 478.094 133.936 478.212 134.29C478.212 134.525 478.212 134.761 478.212 134.996C478.33 135.467 478.212 135.821 478.33 136.292C478.33 136.763 478.33 137.352 478.33 137.823C478.566 138.53 478.212 139.237 478.448 139.944C478.919 141.357 478.919 142.653 478.919 143.948ZM246.163 141.946C246.752 141.946 246.87 141.828 246.634 141.239C245.928 139.472 245.339 137.588 244.75 135.821C241.216 125.926 237.682 115.914 234.031 105.784C233.442 107.433 232.971 108.729 232.499 110.142C228.848 120.39 225.196 130.756 221.427 141.004C221.309 141.357 220.838 141.946 221.78 141.828C229.908 141.828 238.036 141.946 246.163 141.946ZM280.558 178.579C280.912 179.639 280.912 179.639 279.852 179.639C273.609 179.639 267.366 179.639 261.123 179.639C260.18 179.639 259.945 179.286 259.591 178.579C259.12 177.166 258.649 175.752 258.06 174.339C257.236 172.101 256.529 169.863 255.704 167.624C254.762 165.033 253.937 162.442 252.995 159.968C252.877 159.497 252.642 159.379 252.053 159.379C250.05 159.379 247.93 159.379 245.928 159.379C245.574 159.497 245.221 159.379 244.867 159.379C235.209 159.379 225.55 159.379 216.009 159.379C215.655 159.379 215.184 159.261 214.831 159.497C213.653 162.677 212.475 165.975 211.297 169.156C210.119 172.454 208.941 175.752 207.763 178.932C207.645 179.404 207.41 179.639 206.821 179.639C200.225 179.639 193.628 179.639 187.032 179.639C187.032 179.639 186.914 179.639 186.796 179.639C187.856 176.694 188.917 173.632 189.977 170.687C191.39 166.682 192.804 162.795 194.217 158.79C195.631 154.785 197.044 150.78 198.458 146.775C199.871 142.771 201.285 138.883 202.698 134.878C204.112 130.991 205.525 127.104 206.939 123.217C208.823 118.034 210.59 112.852 212.475 107.786C214.242 102.839 216.009 97.892 217.775 92.945C218.482 90.825 219.189 88.704 220.131 86.82C221.545 83.875 224.018 82.461 227.199 81.99C227.906 81.872 228.494 81.872 229.201 81.755C230.615 81.637 232.028 81.755 233.442 81.755C237.211 81.755 240.98 81.755 244.75 81.755C245.103 81.755 245.456 81.637 245.81 81.872C247.459 86.348 248.99 90.825 250.639 95.301C255.351 108.611 260.063 121.921 264.892 135.232C268.19 144.302 271.488 153.372 274.669 162.559C276.671 167.625 278.674 173.043 280.558 178.579Z" fill="#929292"/>
</svg>
