<svg width="990" height="346" viewBox="0 0 990 346" fill="none" xmlns="http://www.w3.org/2000/svg">
<path d="M72.045 345.474C32.745 345.474 0.844971 313.474 0.844971 274.274V72.074C0.844971 32.774 32.745 0.873993 72.045 0.873993H917.945C957.245 0.873993 989.245 32.874 989.245 72.074V345.574H72.045V345.474Z" fill="#929292"/>
<path fill-rule="evenodd" clip-rule="evenodd" d="M799.582 121.034H834.382L886.682 190.534H851.882L877.882 225.334H834.382L808.382 190.534H825.682L799.682 155.734H825.682L799.582 121.034Z" fill="white"/>
<path fill-rule="evenodd" clip-rule="evenodd" d="M799.582 121.034H764.782L712.482 190.534H747.282L721.282 225.334H764.782L790.782 190.534H773.282L799.582 155.834H773.582L799.582 121.034Z" fill="white"/>
<path fill-rule="evenodd" clip-rule="evenodd" d="M140.746 128.136H103.646V187.236C103.646 215.836 124.946 226.936 151.946 226.936C181.246 226.936 200.646 216.536 200.646 185.036V128.036H164.146V185.736C164.146 195.236 162.046 201.836 152.346 201.836C143.346 201.836 140.746 195.036 140.746 185.736V128.136Z" fill="white"/>
<path fill-rule="evenodd" clip-rule="evenodd" d="M209.737 225.392H244.737V183.492C244.737 179.492 244.737 173.792 251.137 173.792C257.337 173.792 257.337 179.492 257.337 183.492V225.392H292.337V174.992C292.337 160.792 285.437 151.092 266.737 151.092C256.837 151.092 247.337 155.092 243.137 165.292H242.837V152.792H209.737V225.392Z" fill="white"/>
<path fill-rule="evenodd" clip-rule="evenodd" d="M339.393 121.064H304.393V145.164H339.393V121.064ZM304.393 225.364H339.393V152.764H304.393V225.364Z" fill="white"/>
<path fill-rule="evenodd" clip-rule="evenodd" d="M350.907 225.392H385.907V183.492C385.907 179.492 385.907 173.792 392.307 173.792C398.207 173.792 398.207 179.492 398.207 183.492V225.392H433.407V183.492C433.407 179.492 433.407 173.792 439.307 173.792C445.707 173.792 445.707 179.492 445.707 183.492V225.392H480.707V181.892C480.707 167.692 480.707 151.092 455.207 151.092C446.407 151.092 434.407 155.092 432.007 163.592H431.807C428.907 154.792 418.807 151.092 409.107 151.092C398.007 151.092 388.507 155.092 384.307 165.292H384.107V152.792H351.007V225.392H350.907Z" fill="white"/>
<path fill-rule="evenodd" clip-rule="evenodd" d="M570.603 197.492V193.192C570.603 168.592 560.703 151.092 532.503 151.092C503.203 151.092 487.603 163.392 487.603 187.692C487.603 212.792 503.203 226.992 532.503 226.992C544.803 226.992 555.903 225.592 565.103 222.692V204.092C559.703 206.892 551.003 208.592 541.503 208.592C531.103 208.592 522.803 206.492 522.103 197.492H570.603ZM522.103 182.092C521.603 176.392 523.303 167.892 531.603 167.892C539.403 167.892 540.303 176.592 540.303 182.092H522.103Z" fill="white"/>
<path fill-rule="evenodd" clip-rule="evenodd" d="M631.951 188.666C631.951 195.466 630.751 203.566 623.451 203.566C615.651 203.566 614.451 195.566 614.451 187.966C614.451 180.366 615.651 172.866 622.951 172.866C630.851 172.866 631.951 180.466 631.951 188.666ZM666.051 225.366V121.066H631.051V162.166H630.751C625.351 154.366 618.251 151.066 608.751 151.066C586.951 151.066 578.051 168.266 578.051 187.966C578.051 208.766 586.551 226.966 609.951 226.966C621.251 226.966 628.351 222.966 633.151 212.066H633.351V225.366H666.051Z" fill="white"/>
<path fill-rule="evenodd" clip-rule="evenodd" d="M695.093 103.664H689.293V242.764H695.093V103.664Z" fill="white"/>
</svg>
