<svg width="2066" height="791" viewBox="0 0 2066 791" fill="none" xmlns="http://www.w3.org/2000/svg">
<path d="M572.277 192.406C639.43 249.448 704.155 297.076 773.796 297.076C901.772 297.076 961.621 216.966 961.621 216.966L529.565 790.87L0.18457 83.0986C0.18457 83.0986 86.6234 0.799561 230.622 0.799561C366.201 0.799561 471.946 107.141 572.277 192.406Z" fill="#929292"/>
<path d="M1070.06 74.6721C1070.06 74.6721 1020.68 33.7117 954.866 33.7117C823.167 33.7117 740.868 165.39 572.27 192.399C639.442 249.441 704.167 297.069 773.808 297.069C901.784 297.069 961.633 216.959 961.633 216.959L1070.06 74.6721Z" fill="#747678"/>
<path d="M1331.92 402.704H1279.12L1210.41 588.121C1206.45 598.848 1204.08 605.974 1204.08 605.974H1203.27C1203.27 605.974 1149.27 470.195 1121.49 402.704H1065.92L1163.58 641.321C1169.13 655.214 1187.01 678.241 1221.94 678.241L1331.92 402.704Z" fill="#929292"/>
<path d="M1837.51 674.274V631.403H1716.58V402.697H1666.94V674.274H1837.51Z" fill="#929292"/>
<path d="M2059.47 674.275V631.404H1944.67V553.583H2041.66V512.284H1944.67V445.589H2010.73C2062.62 445.589 2065.49 402.698 2065.49 402.698H1895.06V674.275H2059.47Z" fill="#929292"/>
<path d="M1608.93 674.274L1500.94 402.697H1453.71L1341.33 674.274H1394.4L1421.54 605.191H1526.35L1553.36 674.274H1608.93ZM1510.07 562.32H1439.02L1474.33 470.607L1474.74 469.014L1510.07 562.32Z" fill="#929292"/>
</svg>
